<svg width="1168" height="233" viewBox="0 0 1168 233" fill="none" xmlns="http://www.w3.org/2000/svg">
<path d="M123.861 200.1C124.461 200.9 124.761 201.8 124.761 202.8C124.761 207.4 119.961 210.9 110.361 213.3C99.7606 205.1 86.5606 192.5 70.7605 175.5C53.1605 156.5 40.0605 143.3 31.4605 135.9C30.8605 141.1 29.7605 154.7 28.1605 176.7C27.1605 193.3 25.3605 206.5 22.7605 216.3C22.3605 216.3 21.0605 216.8 18.8605 217.8C16.8605 218.8 15.1605 219.1 13.7605 218.7C4.96055 216.7 0.560547 210.6 0.560547 200.4C0.560547 197.4 0.960547 193.4 1.76055 188.4C2.56055 182.6 3.06055 179 3.26055 177.6C4.06055 166 4.56055 152.2 4.76055 136.2V103.5C4.76055 76.3 6.26055 53.4 9.26055 34.8C11.2605 22.4 22.9605 16.7 44.3605 17.7C55.1605 18.1 64.5606 23.5 72.5606 33.9C79.9606 43.5 83.6606 53.9 83.6606 65.1C83.6606 74.5 80.1606 83.9 73.1606 93.3C67.1606 101.7 59.7606 108.3 50.9605 113.1C47.3605 115.1 45.5606 117.3 45.5606 119.7C45.5606 122.3 47.6606 125.4 51.8605 129C55.0606 131.6 58.2606 134.2 61.4606 136.8C61.6606 137 72.6606 147 94.4606 166.8C108.261 179.2 118.061 190.3 123.861 200.1ZM60.5605 65.4C61.1606 61.8 61.3606 58.6 61.1606 55.8C60.5605 51.6 58.7605 47.8 55.7605 44.4C52.9605 41 48.3605 39.3 41.9605 39.3C37.1605 39.3 34.1605 40.8 32.9605 43.8C31.9605 48.8 31.4605 54.5 31.4605 60.9C31.4605 63.5 31.7605 70.2 32.3606 81C32.7605 89.2 32.7605 95.9 32.3606 101.1C48.9606 88.7 58.3606 76.8 60.5605 65.4ZM211.594 48C204.194 51 193.294 54.5 178.894 58.5C164.494 62.5 153.594 66 146.194 69C144.394 74.2 143.094 85.8 142.294 103.8C145.494 105 149.194 105.6 153.394 105.6C156.394 105.6 161.094 105.1 167.494 104.1C173.894 103.1 178.594 102.6 181.594 102.6C187.194 102.6 191.994 103.8 195.994 106.2C198.794 110.2 200.194 112.8 200.194 114C200.194 115.4 199.494 116.5 198.094 117.3C197.694 117.5 196.294 118.9 193.894 121.5C192.294 123.3 190.294 124.1 187.894 123.9C183.694 124.9 175.994 125.5 164.794 125.7C155.394 125.9 147.894 127.1 142.294 129.3C138.494 144.1 136.594 155.8 136.594 164.4C136.594 170.2 137.394 174.8 138.994 178.2C148.394 184.8 164.694 187.6 187.894 186.6C189.494 186.6 191.194 185.9 192.994 184.5C194.794 182.9 196.294 182.1 197.494 182.1C203.094 180.9 206.794 185.1 208.594 194.7C209.194 197.9 208.594 200.8 206.794 203.4C205.194 206.2 202.794 207.7 199.594 207.9C175.394 208.7 154.394 206.8 136.594 202.2C130.994 200.8 125.894 197.7 121.294 192.9C116.694 188.1 114.094 182.7 113.494 176.7C111.694 159.3 111.694 143.7 113.494 129.9C107.894 126.1 105.394 122.4 105.994 118.8C106.194 117 107.694 115.4 110.494 114C113.494 112.4 115.194 110.8 115.594 109.2C115.994 107.6 116.794 98.1 117.994 80.7C106.794 78.5 101.294 74.3 101.494 68.1C101.694 62.3 105.194 57.7 111.994 54.3C118.394 51.7 124.794 49.1 131.194 46.5C138.794 42.7 148.194 39.3 159.394 36.3C168.994 33.7 178.694 31.2 188.494 28.8C189.494 28.6 190.694 28.5 192.094 28.5C197.494 28.5 203.794 30.6 210.994 34.8C211.194 35.6 211.694 37.1 212.494 39.3C213.294 41.5 213.694 43.1 213.694 44.1C213.694 45.7 212.994 47 211.594 48ZM282.157 16.5C282.157 20.5 279.257 24 273.457 27C271.857 27.8 270.157 27.9 268.357 27.3C265.557 26.5 264.057 26.1 263.857 26.1C262.657 26.1 261.457 26.7 260.257 27.9C249.457 38.7 244.057 51.9 244.057 67.5C244.057 73.3 244.957 78.7 246.757 83.7C247.557 85.9 255.157 101.4 269.557 130.2C279.157 149.4 283.957 165.7 283.957 179.1C283.957 190.1 281.257 200.7 275.857 210.9C274.057 214.3 269.557 218.7 262.357 224.1C256.557 228.3 251.357 230.4 246.757 230.4C244.957 230.4 243.257 230.1 241.657 229.5C235.657 226.9 232.657 223.6 232.657 219.6C232.657 217.2 234.157 214.3 237.157 210.9C237.957 209.9 239.857 209.3 242.857 209.1C245.857 208.9 247.857 207.7 248.857 205.5C253.057 196.7 255.157 187.7 255.157 178.5C255.157 165.5 248.657 146.7 235.657 122.1C222.857 97.3 216.457 77.5 216.457 62.7C216.457 50.5 218.857 39.6 223.657 30C229.057 19 236.757 11.1 246.757 6.29998C251.357 4.09999 255.857 2.99999 260.257 2.99999C268.657 2.99999 274.957 5.29999 279.157 9.89999C281.157 12.1 282.157 14.3 282.157 16.5ZM452.661 11.1C450.861 18.3 447.461 22.5 442.461 23.7C429.461 26.9 406.861 31.1 374.661 36.3C370.661 86.1 368.661 127.6 368.661 160.8C368.661 173.4 368.861 185.8 369.261 198C369.461 201.8 369.261 204.7 368.661 206.7C367.661 209.9 365.661 211.4 362.661 211.2C356.861 211 352.061 208.5 348.261 203.7C344.461 199.1 342.361 193.9 341.961 188.1C341.561 180.7 341.361 172.9 341.361 164.7C341.361 151.5 342.261 130.6 344.061 102C345.861 74.6 346.661 53.7 346.461 39.3C341.061 38.9 333.561 39.4 323.961 40.8C312.961 42.4 305.361 43.2 301.161 43.2C291.361 43.2 283.361 40.6 277.161 35.4C274.761 30.2 273.561 27.5 273.561 27.3C273.561 25.9 274.261 24.4 275.661 22.8C282.061 20.6 295.161 18.6 314.961 16.8C332.361 15 345.361 11.8 353.961 7.19999C360.961 9.4 368.961 10.5 377.961 10.5C386.961 10.5 395.561 9.4 403.761 7.19999C406.161 6.99999 412.261 5.59999 422.061 2.99999C429.261 1.19999 435.261 0.59999 440.061 1.19999C443.661 1.19999 445.161 2.69999 444.561 5.69999C449.961 5.69999 452.661 7.49999 452.661 11.1ZM520.496 183.6C521.696 186.8 522.296 189.6 522.296 192C522.296 196 520.596 199.5 517.196 202.5C513.796 205.5 511.496 206.9 510.296 206.7C500.496 204.9 494.296 197 491.696 183C488.896 167.8 485.596 155.1 481.796 144.9C474.996 145.5 468.196 146.1 461.396 146.7C453.596 147.7 447.496 150.1 443.096 153.9C440.896 160.1 437.996 171.1 434.396 186.9C430.996 201.5 427.696 212.6 424.496 220.2C422.896 223.8 419.496 224.8 414.296 223.2C407.696 221 404.196 218 403.796 214.2C403.196 206.6 405.396 196.4 410.396 183.6C416.396 169 419.696 158.6 420.296 152.4C420.496 150.6 419.196 148.6 416.396 146.4C413.596 144.2 412.196 142.5 412.196 141.3C412.196 140.3 412.596 139.3 413.396 138.3C414.396 137.1 416.496 136.2 419.696 135.6C423.096 134.8 424.996 133.7 425.396 132.3C428.996 122.3 434.696 103.7 442.496 76.5C449.096 52.9 454.996 34.8 460.196 22.2C461.396 19.4 463.896 18 467.696 18C470.496 18 472.996 18.9 475.196 20.7C480.796 25.5 484.396 32.7 485.996 42.3C487.196 50.5 488.296 58.7 489.296 66.9C499.296 114.1 509.696 153 520.496 183.6ZM476.696 126.3C476.096 118.9 474.796 110.6 472.796 101.4C470.796 93.4 468.896 85.4 467.096 77.4C461.096 94 455.896 110.6 451.496 127.2C454.696 126.6 463.096 126.3 476.696 126.3ZM639.441 34.5C638.041 48.5 634.041 67.2 627.441 90.6C618.441 122 613.241 141 611.841 147.6C607.441 167.8 599.041 186.2 586.641 202.8C578.841 213.4 569.841 218.6 559.641 218.4C550.641 218.2 543.941 212.5 539.541 201.3C531.941 182.5 528.141 160.4 528.141 135C528.141 120.4 529.541 101.6 532.341 78.6C532.141 80.6 532.041 74.4 532.041 60C532.041 47.6 536.841 41.4 546.441 41.4C548.441 41.4 550.541 42 552.741 43.2C555.141 44.2 557.441 45.3 559.641 46.5C559.841 56.7 559.541 71.7 558.741 91.5C557.741 112.7 557.241 128 557.241 137.4C557.241 147.4 557.541 156.5 558.141 164.7C558.541 168.9 560.341 176.9 563.541 188.7C571.941 179.3 578.541 166.8 583.341 151.2C584.941 146 588.141 131.8 592.941 108.6C596.741 91 601.041 77.2 605.841 67.2C607.241 64.4 608.441 59.1 609.441 51.3C610.441 43.5 611.641 38.1 613.041 35.1C615.241 30.3 619.041 27.9 624.441 27.9C631.441 27.9 636.441 30.1 639.441 34.5ZM770.443 200.1C771.043 200.9 771.343 201.8 771.343 202.8C771.343 207.4 766.543 210.9 756.943 213.3C746.343 205.1 733.143 192.5 717.343 175.5C699.743 156.5 686.643 143.3 678.043 135.9C677.443 141.1 676.343 154.7 674.743 176.7C673.743 193.3 671.943 206.5 669.343 216.3C668.943 216.3 667.643 216.8 665.443 217.8C663.443 218.8 661.743 219.1 660.343 218.7C651.543 216.7 647.143 210.6 647.143 200.4C647.143 197.4 647.543 193.4 648.343 188.4C649.143 182.6 649.643 179 649.843 177.6C650.643 166 651.143 152.2 651.343 136.2V103.5C651.343 76.3 652.843 53.4 655.843 34.8C657.843 22.4 669.543 16.7 690.943 17.7C701.743 18.1 711.143 23.5 719.143 33.9C726.543 43.5 730.243 53.9 730.243 65.1C730.243 74.5 726.743 83.9 719.743 93.3C713.743 101.7 706.343 108.3 697.543 113.1C693.943 115.1 692.143 117.3 692.143 119.7C692.143 122.3 694.243 125.4 698.443 129C701.643 131.6 704.843 134.2 708.043 136.8C708.243 137 719.243 147 741.043 166.8C754.843 179.2 764.643 190.3 770.443 200.1ZM707.143 65.4C707.743 61.8 707.943 58.6 707.743 55.8C707.143 51.6 705.343 47.8 702.343 44.4C699.543 41 694.943 39.3 688.543 39.3C683.743 39.3 680.743 40.8 679.543 43.8C678.543 48.8 678.043 54.5 678.043 60.9C678.043 63.5 678.343 70.2 678.943 81C679.343 89.2 679.343 95.9 678.943 101.1C695.543 88.7 704.943 76.8 707.143 65.4ZM862.976 183.6C864.176 186.8 864.776 189.6 864.776 192C864.776 196 863.076 199.5 859.676 202.5C856.276 205.5 853.976 206.9 852.776 206.7C842.976 204.9 836.776 197 834.176 183C831.376 167.8 828.076 155.1 824.276 144.9C817.476 145.5 810.676 146.1 803.876 146.7C796.076 147.7 789.976 150.1 785.576 153.9C783.376 160.1 780.476 171.1 776.876 186.9C773.476 201.5 770.176 212.6 766.976 220.2C765.376 223.8 761.976 224.8 756.776 223.2C750.176 221 746.676 218 746.276 214.2C745.676 206.6 747.876 196.4 752.876 183.6C758.876 169 762.176 158.6 762.776 152.4C762.976 150.6 761.676 148.6 758.876 146.4C756.076 144.2 754.676 142.5 754.676 141.3C754.676 140.3 755.076 139.3 755.876 138.3C756.876 137.1 758.976 136.2 762.176 135.6C765.576 134.8 767.476 133.7 767.876 132.3C771.476 122.3 777.176 103.7 784.976 76.5C791.576 52.9 797.476 34.8 802.676 22.2C803.876 19.4 806.376 18 810.176 18C812.976 18 815.476 18.9 817.676 20.7C823.276 25.5 826.876 32.7 828.476 42.3C829.676 50.5 830.776 58.7 831.776 66.9C841.776 114.1 852.176 153 862.976 183.6ZM819.176 126.3C818.576 118.9 817.276 110.6 815.276 101.4C813.276 93.4 811.376 85.4 809.576 77.4C803.576 94 798.376 110.6 793.976 127.2C797.176 126.6 805.576 126.3 819.176 126.3ZM1001.12 16.2C998.321 43 995.621 69.9 993.021 96.9C989.621 128.9 987.921 155.6 987.921 177C987.921 184 988.121 190.9 988.521 197.7C988.721 200.9 987.521 203.7 984.921 206.1C982.521 208.5 979.721 209.7 976.521 209.7C970.321 209.7 965.121 205.5 960.921 197.1C948.121 172.1 932.221 132.9 913.221 79.5C912.821 78.3 912.321 77.7 911.721 77.7C910.321 77.7 909.421 79.1 909.021 81.9C905.621 110.5 903.921 140.6 903.921 172.2C903.921 187.4 904.321 202.9 905.121 218.7C905.321 224.5 903.621 228.5 900.021 230.7C898.621 232.1 897.121 232.8 895.521 232.8C894.121 232.8 892.321 232.2 890.121 231C887.121 229.6 885.221 228.7 884.421 228.3C881.821 227.5 880.221 225.1 879.621 221.1C879.421 217.9 879.221 214.6 879.021 211.2C878.421 200 878.121 188.3 878.121 176.1C878.121 154.9 879.321 128.4 881.721 96.6C885.521 48.2 887.621 21.4 888.021 16.2C888.221 11.8 891.921 9.59999 899.121 9.59999C902.521 9.19999 907.521 11.7 914.121 17.1C920.521 29.3 928.421 49.1 937.821 76.5C946.821 102.7 955.021 122.6 962.421 136.2C965.421 109.6 970.121 69.4 976.521 15.6C977.121 11.6 980.021 9.59999 985.221 9.59999C987.021 9.59999 989.121 9.9 991.521 10.5C994.721 11.3 996.621 11.8 997.221 12C999.221 12.8 1000.52 14.2 1001.12 16.2ZM1167.5 11.1C1165.7 18.3 1162.3 22.5 1157.3 23.7C1144.3 26.9 1121.7 31.1 1089.5 36.3C1085.5 86.1 1083.5 127.6 1083.5 160.8C1083.5 173.4 1083.7 185.8 1084.1 198C1084.3 201.8 1084.1 204.7 1083.5 206.7C1082.5 209.9 1080.5 211.4 1077.5 211.2C1071.7 211 1066.9 208.5 1063.1 203.7C1059.3 199.1 1057.2 193.9 1056.8 188.1C1056.4 180.7 1056.2 172.9 1056.2 164.7C1056.2 151.5 1057.1 130.6 1058.9 102C1060.7 74.6 1061.5 53.7 1061.3 39.3C1055.9 38.9 1048.4 39.4 1038.8 40.8C1027.8 42.4 1020.2 43.2 1016 43.2C1006.2 43.2 998.204 40.6 992.004 35.4C989.604 30.2 988.404 27.5 988.404 27.3C988.404 25.9 989.104 24.4 990.504 22.8C996.904 20.6 1010 18.6 1029.8 16.8C1047.2 15 1060.2 11.8 1068.8 7.19999C1075.8 9.4 1083.8 10.5 1092.8 10.5C1101.8 10.5 1110.4 9.4 1118.6 7.19999C1121 6.99999 1127.1 5.59999 1136.9 2.99999C1144.1 1.19999 1150.1 0.59999 1154.9 1.19999C1158.5 1.19999 1160 2.69999 1159.4 5.69999C1164.8 5.69999 1167.5 7.49999 1167.5 11.1Z" fill="#161616"/>
</svg>
